<svg id="support_1_" data-name="support (1)" xmlns="http://www.w3.org/2000/svg" width="89.032" height="80.873" viewBox="0 0 89.032 80.873">
  <g id="Grupo_111" data-name="Grupo 111" transform="translate(81.309 53.087)">
    <g id="Grupo_110" data-name="Grupo 110">
      <path id="Trazado_401" data-name="Trazado 401" d="M474.8,333.465l-4.244-4.21a1.739,1.739,0,1,0-2.45,2.47l4.244,4.21a1.739,1.739,0,0,0,2.45-2.47Z" transform="translate(-467.587 -328.751)" fill="#417351"/>
    </g>
  </g>
  <g id="Grupo_113" data-name="Grupo 113" transform="translate(76.977 48.774)">
    <g id="Grupo_112" data-name="Grupo 112">
      <path id="Trazado_402" data-name="Trazado 402" d="M445.646,304.461a1.739,1.739,0,0,0-2.46,0l0,0a1.739,1.739,0,1,0,2.463,0Z" transform="translate(-442.675 -303.951)" fill="#417351"/>
    </g>
  </g>
  <g id="Grupo_115" data-name="Grupo 115" transform="translate(0 0)">
    <g id="Grupo_114" data-name="Grupo 114" transform="translate(0 0)">
      <path id="Trazado_403" data-name="Trazado 403" d="M65.12,80.765,81.992,63.893a6.549,6.549,0,0,0-3.161-11.017A6.556,6.556,0,0,0,74,43.655a6.543,6.543,0,0,0-5.1-8.507,6.557,6.557,0,0,0-9.354-7.818l-.168-.18A11.606,11.606,0,0,0,50.9,23.462H37.247A1.739,1.739,0,0,0,35.508,25.2v2.281a7.9,7.9,0,0,0,.45,2.637,6.555,6.555,0,0,0-8.736,8.112,6.554,6.554,0,0,0-5.112,8.508,6.554,6.554,0,0,0-4.827,9.217,6.555,6.555,0,0,0-3.162,11.021l3.47,3.47L.509,87.528a1.739,1.739,0,1,0,2.459,2.46L20.215,72.741A6.55,6.55,0,0,0,30,66.778c.088,0,.176.006.264.006a6.548,6.548,0,0,0,6.554-6.551c0-.089,0-.176-.006-.264.087,0,.174.006.262.006a6.548,6.548,0,0,0,6.554-6.551c0-.089,0-.176-.006-.264.087,0,.174.006.262.006A6.551,6.551,0,0,0,48.95,42.461L60.5,30.916a3.075,3.075,0,1,1,4.349,4.349l-1.7,1.7-6.176,6.176a1.739,1.739,0,1,0,2.459,2.46L65.6,39.427a3.076,3.076,0,1,1,4.35,4.35l-1.7,1.7-4.474,4.474a1.739,1.739,0,1,0,2.459,2.46l4.474-4.474a3.075,3.075,0,1,1,4.349,4.349l-2.337,2.337-2.137,2.137a1.739,1.739,0,1,0,2.459,2.46l2.139-2.139a3.076,3.076,0,0,1,4.348,4.351L62.658,78.306A23.561,23.561,0,0,1,46.8,85.213a1.739,1.739,0,0,0-1.169.511L30.048,101.368a1.739,1.739,0,1,0,2.464,2.455L43.976,92.317A16.166,16.166,0,0,0,53.8,94.843l8.972,8.973a1.739,1.739,0,0,0,2.459-2.46l-9.54-9.541a1.74,1.74,0,0,0-1.372-.5l-.551.045a12.7,12.7,0,0,1-7.258-1.58l1.118-1.122A27.024,27.024,0,0,0,65.12,80.765ZM25.629,69.217a3.075,3.075,0,0,1-4.349,0l-4.7-4.7a3.076,3.076,0,1,1,4.35-4.35l4.7,4.7A3.079,3.079,0,0,1,25.629,69.217Zm6.809-6.809a3.079,3.079,0,0,1-4.35,0l-4.7-4.7-2.337-2.337a3.076,3.076,0,1,1,4.349-4.35l7.036,7.036h0a3.076,3.076,0,0,1,0,4.35ZM39.248,55.6a3.079,3.079,0,0,1-4.35,0L26.159,46.86a3.076,3.076,0,0,1,4.348-4.351l3.983,3.983,4.757,4.757h0a3.076,3.076,0,0,1,0,4.35Zm6.809-6.809a3.079,3.079,0,0,1-4.35,0l-8.738-8.738,0,0-1.7-1.7A3.076,3.076,0,0,1,35.616,34L46.056,44.44a3.076,3.076,0,0,1,0,4.35Zm.457-8.811L41.737,35.2a7.958,7.958,0,0,0,1.666.177h.038l4.773-.022a1.739,1.739,0,0,0-.008-3.478H48.2l-4.773.022H43.4a4.417,4.417,0,0,1-4.417-4.418V26.94H50.9a8.117,8.117,0,0,1,5.923,2.579l.071.076Z" transform="translate(0 -23.462)" fill="#417351"/>
    </g>
  </g>
</svg>
