<svg id="support" xmlns="http://www.w3.org/2000/svg" width="85.545" height="85.545" viewBox="0 0 85.545 85.545">
  <g id="Grupo_87" data-name="Grupo 87" transform="translate(32.792 27.089)">
    <g id="Grupo_86" data-name="Grupo 86">
      <path id="Trazado_397" data-name="Trazado 397" d="M188.277,152A4.282,4.282,0,0,0,184,156.277h2.852a1.426,1.426,0,1,1,2.852,0h2.852A4.282,4.282,0,0,0,188.277,152Z" transform="translate(-184 -152)" fill="#417351"/>
    </g>
  </g>
  <g id="Grupo_89" data-name="Grupo 89" transform="translate(44.198 27.089)">
    <g id="Grupo_88" data-name="Grupo 88">
      <path id="Trazado_398" data-name="Trazado 398" d="M252.277,152A4.282,4.282,0,0,0,248,156.277h2.852a1.426,1.426,0,1,1,2.852,0h2.852A4.283,4.283,0,0,0,252.277,152Z" transform="translate(-248 -152)" fill="#417351"/>
    </g>
  </g>
  <g id="Grupo_91" data-name="Grupo 91" transform="translate(37.07 65.585)">
    <g id="Grupo_90" data-name="Grupo 90">
      <path id="Trazado_399" data-name="Trazado 399" d="M213.7,368a5.7,5.7,0,1,0,5.7,5.7A5.709,5.709,0,0,0,213.7,368Zm0,8.555a2.852,2.852,0,1,1,2.852-2.852A2.854,2.854,0,0,1,213.7,376.555Z" transform="translate(-208 -368)" fill="#417351"/>
    </g>
  </g>
  <g id="Grupo_93" data-name="Grupo 93">
    <g id="Grupo_92" data-name="Grupo 92">
      <path id="Trazado_400" data-name="Trazado 400" d="M76.991,82.694V64.159A21.411,21.411,0,0,0,55.6,42.773H54.052a17.166,17.166,0,0,0,1.437-1.426H57.03a7.137,7.137,0,0,0,7.129-7.129V31.706a6.4,6.4,0,0,0-.017-10.669,21.372,21.372,0,0,0-42.738,0,6.412,6.412,0,0,0,3.547,11.755h.971a17.079,17.079,0,0,0,5.573,9.98H29.941A21.411,21.411,0,0,0,8.555,64.159V82.694H0v2.852H85.545V82.694ZM61.307,34.218A4.269,4.269,0,0,1,57.6,38.437a16.956,16.956,0,0,0,2.022-5.645h.971a6.19,6.19,0,0,0,.713-.073Zm2.852-7.842a3.568,3.568,0,0,1-3.564,3.564h-.713V22.812h.713A3.568,3.568,0,0,1,64.159,26.376Zm-38.5,3.564h-.713a3.564,3.564,0,1,1,0-7.129h.713Zm-.713-9.98a6.014,6.014,0,0,0-.644.066,18.515,18.515,0,0,1,36.933,0,6.014,6.014,0,0,0-.644-.066h-.971a17.087,17.087,0,0,0-33.7,0Zm32.078,2.816c-10.29-.362-17.108-4.57-17.108-8.519a1.426,1.426,0,1,0-2.852,0c0,3.563-3.684,6.516-8.472,7.039a14.256,14.256,0,0,1,28.431,1.48ZM28.515,29.941V24.158c4.453-.386,8.231-2.534,10.117-5.54,2.983,3.952,9.953,6.734,18.4,7.018v4.306A14.169,14.169,0,0,1,54.151,38.5H42.773v2.852H51.29A14.248,14.248,0,0,1,28.515,29.941Zm9.851,16.513a16.592,16.592,0,0,0,8.814,0l-4.407,8.814Zm2.1,10.576H37.951l-5.7-11.406h2.515ZM50.782,45.624H53.3l-5.7,11.406H45.079Zm-35.1,18.535V82.694H11.406V64.159A18.541,18.541,0,0,1,29.081,45.668L34.763,57.03H22.812A7.137,7.137,0,0,0,15.683,64.159ZM67.01,82.694H18.535V64.159a4.282,4.282,0,0,1,4.277-4.277H62.733a4.282,4.282,0,0,1,4.277,4.277Zm7.129,0H69.862V64.159a7.137,7.137,0,0,0-7.129-7.129H50.782l5.682-11.362A18.541,18.541,0,0,1,74.139,64.159Z" fill="#417351"/>
    </g>
  </g>
  <g id="Grupo_95" data-name="Grupo 95" transform="translate(61.307 69.862)">
    <g id="Grupo_94" data-name="Grupo 94">
      <rect id="Rectángulo_571" data-name="Rectángulo 571" width="2.852" height="9.98" fill="#417351"/>
    </g>
  </g>
  <g id="Grupo_97" data-name="Grupo 97" transform="translate(61.307 64.159)">
    <g id="Grupo_96" data-name="Grupo 96">
      <rect id="Rectángulo_572" data-name="Rectángulo 572" width="2.852" height="2.852" fill="#417351"/>
    </g>
  </g>
  <g id="Grupo_99" data-name="Grupo 99" transform="translate(74.139 12.832)">
    <g id="Grupo_98" data-name="Grupo 98">
      <rect id="Rectángulo_573" data-name="Rectángulo 573" width="2.852" height="2.852" fill="#417351"/>
    </g>
  </g>
  <g id="Grupo_101" data-name="Grupo 101" transform="translate(74.139 18.535)">
    <g id="Grupo_100" data-name="Grupo 100">
      <rect id="Rectángulo_574" data-name="Rectángulo 574" width="2.852" height="2.852" fill="#417351"/>
    </g>
  </g>
  <g id="Grupo_103" data-name="Grupo 103" transform="translate(74.139 24.238)">
    <g id="Grupo_102" data-name="Grupo 102">
      <rect id="Rectángulo_575" data-name="Rectángulo 575" width="2.852" height="2.852" fill="#417351"/>
    </g>
  </g>
  <g id="Grupo_105" data-name="Grupo 105" transform="translate(8.555 29.941)">
    <g id="Grupo_104" data-name="Grupo 104">
      <rect id="Rectángulo_576" data-name="Rectángulo 576" width="2.852" height="2.852" fill="#417351"/>
    </g>
  </g>
  <g id="Grupo_107" data-name="Grupo 107" transform="translate(8.555 35.644)">
    <g id="Grupo_106" data-name="Grupo 106">
      <rect id="Rectángulo_577" data-name="Rectángulo 577" width="2.852" height="2.852" fill="#417351"/>
    </g>
  </g>
  <g id="Grupo_109" data-name="Grupo 109" transform="translate(8.555 41.347)">
    <g id="Grupo_108" data-name="Grupo 108">
      <rect id="Rectángulo_578" data-name="Rectángulo 578" width="2.852" height="2.852" fill="#417351"/>
    </g>
  </g>
</svg>
