<svg xmlns="http://www.w3.org/2000/svg" width="100.471" height="73.757" viewBox="0 0 100.471 73.757">
  <g id="team" transform="translate(0 -68.066)">
    <g id="Grupo_135" data-name="Grupo 135" transform="translate(77.07 99.538)">
      <g id="Grupo_134" data-name="Grupo 134">
        <path id="Trazado_410" data-name="Trazado 410" d="M404.323,230.178c-3.419-1.709-9.829-1.729-10.1-1.729a1.472,1.472,0,0,0,0,2.943c1.654,0,6.456.255,8.784,1.418a1.472,1.472,0,0,0,1.316-2.633Z" transform="translate(-392.751 -228.449)" fill="#417351"/>
      </g>
    </g>
    <g id="Grupo_137" data-name="Grupo 137" transform="translate(0 68.066)">
      <g id="Grupo_136" data-name="Grupo 136">
        <path id="Trazado_411" data-name="Trazado 411" d="M95.979,122.221,89.9,120.484a.617.617,0,0,1-.446-.591v-2.029a11.061,11.061,0,0,0,1.407-1.154,10.827,10.827,0,0,0,3.314-7.833v-2.8l.588-1.175a9.389,9.389,0,0,0,.986-4.177V93.142a1.472,1.472,0,0,0-1.472-1.472H80.115a9.351,9.351,0,0,0-9.34,9.34v.088a7.806,7.806,0,0,0,.82,3.473l.754,1.507v2.4a11.483,11.483,0,0,0,4.721,9.285v2.126c0,.328,0,.464-1.215.811l-2.966.847-8.579-3.12a1.47,1.47,0,0,0-.4-1.127l-2.742-2.88V109.59c.29-.239.576-.484.852-.744a17.273,17.273,0,0,0,5.442-12.557V92.428a17.012,17.012,0,0,0,1.574-7.154V69.538a1.472,1.472,0,0,0-1.472-1.472H45.533A14.077,14.077,0,0,0,31.472,82.127v3.147a17.012,17.012,0,0,0,1.574,7.154V95.75a17.983,17.983,0,0,0,6.295,13.726v4.949l-2.742,2.88a1.47,1.47,0,0,0-.4,1.127l-9.055,3.293a7.718,7.718,0,0,0-1.819.953l-1.422-.711c4.233-1.842,5.574-4.434,5.638-4.562a1.471,1.471,0,0,0,0-1.316c-1.061-2.122-1.19-6.012-1.293-9.137-.034-1.04-.067-2.023-.129-2.9-.5-7.059-5.868-12.383-12.483-12.383S3.652,96.993,3.151,104.053c-.062.875-.095,1.858-.129,2.9-.1,3.125-.232,7.014-1.293,9.136a1.471,1.471,0,0,0,0,1.316c.064.129,1.4,2.715,5.644,4.559l-3.95,1.975A6.161,6.161,0,0,0,0,129.477V140.35a1.472,1.472,0,1,0,2.943,0V129.477a3.232,3.232,0,0,1,1.8-2.906l4.918-2.459,1.711,1.626a6.189,6.189,0,0,0,8.532,0l1.711-1.626,1.6.8a7.75,7.75,0,0,0-1.184,4.109v11.327a1.472,1.472,0,1,0,2.943,0V129.023a4.837,4.837,0,0,1,3.175-4.532l9.547-3.472,3.974,5.962a3.034,3.034,0,0,0,2.234,1.341q.152.015.3.015a3.033,3.033,0,0,0,2.15-.892l2.425-2.425v15.33a1.472,1.472,0,1,0,2.943,0v-15.33l2.425,2.425a3.032,3.032,0,0,0,2.15.892q.151,0,.3-.015a3.034,3.034,0,0,0,2.234-1.341l3.974-5.962,9.547,3.472a4.838,4.838,0,0,1,3.175,4.532v11.327a1.472,1.472,0,0,0,2.943,0V129.024a7.78,7.78,0,0,0-2.177-5.385l.364-.1a8.071,8.071,0,0,0,1.369-.494l3.758,3.758v13.553a1.472,1.472,0,0,0,2.943,0V126.8l3.732-3.732a3.5,3.5,0,0,0,.626.249l6.078,1.737a3.263,3.263,0,0,1,2.357,3.124v12.175a1.472,1.472,0,0,0,2.943,0V128.176A6.22,6.22,0,0,0,95.979,122.221Zm-86.538-2.6a10.58,10.58,0,0,1-4.723-3.032,16.222,16.222,0,0,0,.839-3.524,10.975,10.975,0,0,0,3.884,4.793Zm8.431,3.983a3.248,3.248,0,0,1-4.477,0l-1.369-1.3a3.045,3.045,0,0,0,.358-1.437V119.3a10.944,10.944,0,0,0,6.5,0v1.567a3.045,3.045,0,0,0,.358,1.438Zm-2.238-6.756a7.979,7.979,0,0,1-7.97-7.97,1.463,1.463,0,0,0-1.713-1.45c0-.127.008-.253.013-.379.033-1.012.064-1.968.123-2.788A10.926,10.926,0,0,1,9.063,97.4a9.144,9.144,0,0,1,13.144,0,10.926,10.926,0,0,1,2.975,6.862c.058.82.09,1.775.123,2.787l.009.263A13.224,13.224,0,0,0,18.045,102a18.471,18.471,0,0,0-5.6-.887,1.472,1.472,0,0,0-1.019.45l-2.655,2.754a1.472,1.472,0,1,0,2.119,2.043l2.21-2.291c1.9.093,8.025.8,10.406,6.048A7.951,7.951,0,0,1,15.635,116.848Zm6.192,2.778v-1.755a10.886,10.886,0,0,0,3.886-4.8,16.2,16.2,0,0,0,.838,3.516A10.631,10.631,0,0,1,21.827,119.626ZM35.989,95.75V92.1a1.472,1.472,0,0,0-.146-.64,14.117,14.117,0,0,1-1.427-6.185V82.127A11.13,11.13,0,0,1,45.533,71.01H66.092V85.274a14.117,14.117,0,0,1-1.427,6.185,1.472,1.472,0,0,0-.146.64v4.191a14.129,14.129,0,0,1-4.512,10.41,14.652,14.652,0,0,1-1.13.957l-.025.018a14.151,14.151,0,0,1-9.55,2.849C41.837,110.04,35.989,103.551,35.989,95.75Zm8.287,29.614a.093.093,0,0,1-.082.029.094.094,0,0,1-.075-.045l-4.577-6.866,1.473-1.548,6.944,4.746Zm5.978-5.68-7.97-5.448v-2.747a16.571,16.571,0,0,0,6.827,1.971q.582.038,1.158.037a17.047,17.047,0,0,0,7.955-1.95v2.688Zm6.135,5.664a.094.094,0,0,1-.075.045.091.091,0,0,1-.082-.029l-3.683-3.683,6.944-4.746,1.473,1.548Zm26.874-1.242-3.34-3.34a4.038,4.038,0,0,0,.091-.874v-.621a10.319,10.319,0,0,0,2.914.515c.113,0,.226.005.339.005a10.932,10.932,0,0,0,3.245-.491v.593a3.518,3.518,0,0,0,.106.858Zm5.55-9.508a7.91,7.91,0,0,1-5.8,2.246,8.239,8.239,0,0,1-7.724-8.362v-2.751a1.47,1.47,0,0,0-.155-.658l-.909-1.818a4.848,4.848,0,0,1-.509-2.157v-.088a6.4,6.4,0,0,1,6.4-6.4H92.806v6.113a6.431,6.431,0,0,1-.675,2.861l-.743,1.486a1.471,1.471,0,0,0-.155.658v3.147A7.907,7.907,0,0,1,88.813,114.6Z" transform="translate(0 -68.066)" fill="#417351"/>
      </g>
    </g>
    <g id="Grupo_139" data-name="Grupo 139" transform="translate(91.233 129.437)">
      <g id="Grupo_138" data-name="Grupo 138" transform="translate(0 0)">
        <path id="Trazado_412" data-name="Trazado 412" d="M466.395,380.814a1.472,1.472,0,0,0-1.472,1.472v9.442a1.472,1.472,0,1,0,2.943,0v-9.442A1.472,1.472,0,0,0,466.395,380.814Z" transform="translate(-464.923 -380.814)" fill="#417351"/>
      </g>
    </g>
    <g id="Grupo_141" data-name="Grupo 141" transform="translate(6.295 131.382)">
      <g id="Grupo_140" data-name="Grupo 140">
        <path id="Trazado_413" data-name="Trazado 413" d="M33.549,390.728a1.472,1.472,0,0,0-1.472,1.472v7.5a1.472,1.472,0,1,0,2.943,0v-7.5A1.472,1.472,0,0,0,33.549,390.728Z" transform="translate(-32.077 -390.728)" fill="#417351"/>
      </g>
    </g>
    <g id="Grupo_143" data-name="Grupo 143" transform="translate(37.767 81.437)">
      <g id="Grupo_142" data-name="Grupo 142">
        <path id="Trazado_414" data-name="Trazado 414" d="M217,140.573c-5.566-5.566-17.212-4.5-21.962-3.786a3.021,3.021,0,0,0-2.581,3.01v3.391a1.472,1.472,0,0,0,2.943,0V139.8a.1.1,0,0,1,.077-.1,46.5,46.5,0,0,1,9.561-.467c4.589.306,7.914,1.458,9.88,3.424A1.472,1.472,0,1,0,217,140.573Z" transform="translate(-192.46 -136.203)" fill="#417351"/>
      </g>
    </g>
    <g id="Grupo_145" data-name="Grupo 145" transform="translate(31.472 132.584)">
      <g id="Grupo_144" data-name="Grupo 144" transform="translate(0 0)">
        <path id="Trazado_415" data-name="Trazado 415" d="M161.856,396.853a1.472,1.472,0,0,0-1.472,1.472v6.294a1.472,1.472,0,1,0,2.943,0v-6.294A1.472,1.472,0,0,0,161.856,396.853Z" transform="translate(-160.384 -396.853)" fill="#417351"/>
      </g>
    </g>
    <g id="Grupo_147" data-name="Grupo 147" transform="translate(66.092 132.584)">
      <g id="Grupo_146" data-name="Grupo 146" transform="translate(0 0)">
        <path id="Trazado_416" data-name="Trazado 416" d="M338.278,396.853a1.472,1.472,0,0,0-1.472,1.472v6.294a1.472,1.472,0,1,0,2.943,0v-6.294A1.472,1.472,0,0,0,338.278,396.853Z" transform="translate(-336.806 -396.853)" fill="#417351"/>
      </g>
    </g>
  </g>
</svg>
