<svg id="transparencia_2" data-name="transparencia 2" xmlns="http://www.w3.org/2000/svg" width="87.692" height="87.692" viewBox="0 0 87.692 87.692">
  <path id="Trazado_395" data-name="Trazado 395" d="M85.566,62.4a1.713,1.713,0,0,0-2.07,1.257,27.062,27.062,0,0,1-53.082-2.69h.068A30.517,30.517,0,0,0,60.965,30.483c0-.024,0-.048,0-.071A26.986,26.986,0,0,1,83.473,50.674,1.713,1.713,0,0,0,86.8,49.85a30.636,30.636,0,0,0-10.667-16.54A30.1,30.1,0,0,0,60.757,26.93,30.482,30.482,0,1,0,26.935,60.758,30.527,30.527,0,0,0,57.21,87.692a30.159,30.159,0,0,0,18.961-6.614A30.633,30.633,0,0,0,86.823,64.467,1.713,1.713,0,0,0,85.566,62.4ZM57.54,30.483A27.088,27.088,0,0,1,30.483,57.54c-.109,0-.217,0-.326,0,0-.109,0-.217,0-.326A27.089,27.089,0,0,1,57.21,30.152c.108,0,.217,0,.326,0C57.537,30.265,57.54,30.373,57.54,30.483Zm-54.115,0a27.058,27.058,0,0,1,53.854-3.755H57.21A30.517,30.517,0,0,0,26.727,57.21c0,.023,0,.045,0,.069A27.1,27.1,0,0,1,3.425,30.483Zm0,0" fill="#417351"/>
  <path id="Trazado_396" data-name="Trazado 396" d="M494.924,324.533a1.713,1.713,0,1,0,.5,1.21A1.716,1.716,0,0,0,494.924,324.533Zm0,0" transform="translate(-407.733 -268.533)" fill="#417351"/>
</svg>
