<svg xmlns="http://www.w3.org/2000/svg" width="71.911" height="95.248" viewBox="0 0 71.911 95.248">
  <g id="Grupo_133" data-name="Grupo 133" transform="translate(-1381 -2703.221)">
    <g id="Grupo_120" data-name="Grupo 120" transform="translate(1398.134 2765.829)">
      <g id="Grupo_119" data-name="Grupo 119">
        <path id="Trazado_404" data-name="Trazado 404" d="M125.988,284.155a2.145,2.145,0,0,1,2.869.9l3.966,7.344a1.4,1.4,0,0,0,2.64-.667V281.008a1.4,1.4,0,0,0-2.809,0v5.167l-1.326-2.455a4.966,4.966,0,0,0-9.2,3.524L124.7,297.9a19.237,19.237,0,0,0,3.185,6.873l5.037,6.893a1.4,1.4,0,0,0,2.268-1.658l-5.037-6.893a16.438,16.438,0,0,1-2.722-5.874l-2.571-10.658A2.148,2.148,0,0,1,125.988,284.155Z" transform="translate(-121.991 -279.604)" fill="#417351"/>
      </g>
    </g>
    <g id="Grupo_122" data-name="Grupo 122" transform="translate(1408.797 2748.696)">
      <g id="Grupo_121" data-name="Grupo 121">
        <path id="Trazado_405" data-name="Trazado 405" d="M222.954,173.316a4.752,4.752,0,0,0-2.289.585,4.776,4.776,0,0,0-6.873-2.42,4.775,4.775,0,0,0-6.319-2.365V162.4a4.782,4.782,0,0,0-9.563,0v2.435a1.4,1.4,0,1,0,2.809,0V162.4a1.973,1.973,0,0,1,3.945,0V182.22a1.4,1.4,0,0,0,2.809,0v-8.75a1.973,1.973,0,1,1,3.945,0v8.75a1.4,1.4,0,0,0,2.809,0v-6.611a1.973,1.973,0,1,1,3.945,0v6.611a1.4,1.4,0,0,0,2.809,0V178.1a1.973,1.973,0,1,1,3.945,0v11.851a31.047,31.047,0,0,1-1.424,9.3l-1.981,6.318a1.4,1.4,0,1,0,2.68.84l1.981-6.318a33.855,33.855,0,0,0,1.553-10.141V178.1A4.787,4.787,0,0,0,222.954,173.316Z" transform="translate(-197.909 -157.619)" fill="#417351"/>
      </g>
    </g>
    <g id="Grupo_124" data-name="Grupo 124" transform="translate(1432.167 2726.558)">
      <g id="Grupo_123" data-name="Grupo 123">
        <path id="Trazado_406" data-name="Trazado 406" d="M384.928,7.448a2.35,2.35,0,0,0-1.909-1.609l-4.3-.624-1.925-3.9A2.35,2.35,0,0,0,374.672,0h0a2.35,2.35,0,0,0-2.12,1.319l-1.923,3.9-4.3.626a2.365,2.365,0,0,0-1.309,4.034l3.114,3.033L367.4,17.2a2.362,2.362,0,0,0,3.431,2.492l3.847-2.024,3.848,2.022a2.364,2.364,0,0,0,3.43-2.494l-.736-4.284,3.112-3.035A2.35,2.35,0,0,0,384.928,7.448Zm-5.838,3.611a2.363,2.363,0,0,0-.68,2.093l.623,3.627-3.258-1.712a2.364,2.364,0,0,0-2.2,0l-3.257,1.713.621-3.627a2.364,2.364,0,0,0-.681-2.093l-2.636-2.568,3.642-.53a2.364,2.364,0,0,0,1.78-1.294l1.628-3.3,1.63,3.3a2.364,2.364,0,0,0,1.781,1.293l3.642.528Z" transform="translate(-364.301 0)" fill="#417351"/>
      </g>
    </g>
    <g id="Grupo_126" data-name="Grupo 126" transform="translate(1406.583 2726.558)">
      <g id="Grupo_125" data-name="Grupo 125">
        <path id="Trazado_407" data-name="Trazado 407" d="M202.777,7.448a2.35,2.35,0,0,0-1.909-1.609l-4.3-.624-1.925-3.9A2.35,2.35,0,0,0,192.521,0h0a2.35,2.35,0,0,0-2.12,1.319l-1.923,3.9-4.3.626a2.365,2.365,0,0,0-1.309,4.034l3.114,3.033-.734,4.285a2.362,2.362,0,0,0,3.431,2.492l3.847-2.024,3.848,2.022a2.365,2.365,0,0,0,3.43-2.494l-.736-4.284,3.112-3.035A2.35,2.35,0,0,0,202.777,7.448Zm-5.838,3.611a2.364,2.364,0,0,0-.679,2.093l.623,3.627-3.258-1.712a2.364,2.364,0,0,0-2.2,0l-3.257,1.713.621-3.627a2.364,2.364,0,0,0-.681-2.093l-2.636-2.568,3.642-.53a2.365,2.365,0,0,0,1.78-1.294l1.628-3.3,1.63,3.3a2.364,2.364,0,0,0,1.781,1.293l3.642.528Z" transform="translate(-182.15 0)" fill="#417351"/>
      </g>
    </g>
    <g id="Grupo_128" data-name="Grupo 128" transform="translate(1381 2726.558)">
      <g id="Grupo_127" data-name="Grupo 127">
        <path id="Trazado_408" data-name="Trazado 408" d="M20.627,7.448a2.35,2.35,0,0,0-1.909-1.609l-4.3-.624-1.925-3.9A2.35,2.35,0,0,0,10.37,0h0A2.35,2.35,0,0,0,8.25,1.319l-1.923,3.9-4.3.626A2.365,2.365,0,0,0,.716,9.877L3.83,12.911,3.1,17.2a2.362,2.362,0,0,0,3.432,2.492l3.847-2.024,3.848,2.022a2.364,2.364,0,0,0,3.43-2.494l-.736-4.284,3.112-3.035A2.35,2.35,0,0,0,20.627,7.448Zm-5.838,3.611a2.363,2.363,0,0,0-.68,2.093l.623,3.627-3.258-1.712a2.364,2.364,0,0,0-2.2,0L6.016,16.782l.621-3.627a2.364,2.364,0,0,0-.681-2.093L3.321,8.494l3.642-.53a2.364,2.364,0,0,0,1.78-1.294l1.628-3.3L12,6.668a2.364,2.364,0,0,0,1.781,1.293l3.642.528Z" transform="translate(0 0)" fill="#417351"/>
      </g>
    </g>
    <g id="Grupo_131" data-name="Grupo 131" transform="translate(1419.005 2703.221)">
      <g id="Grupo_127-2" data-name="Grupo 127">
        <path id="Trazado_408-2" data-name="Trazado 408" d="M20.627,7.448a2.35,2.35,0,0,0-1.909-1.609l-4.3-.624-1.925-3.9A2.35,2.35,0,0,0,10.37,0h0A2.35,2.35,0,0,0,8.25,1.319l-1.923,3.9-4.3.626A2.365,2.365,0,0,0,.716,9.877L3.83,12.911,3.1,17.2a2.362,2.362,0,0,0,3.432,2.492l3.847-2.024,3.848,2.022a2.364,2.364,0,0,0,3.43-2.494l-.736-4.284,3.112-3.035A2.35,2.35,0,0,0,20.627,7.448Zm-5.838,3.611a2.363,2.363,0,0,0-.68,2.093l.623,3.627-3.258-1.712a2.364,2.364,0,0,0-2.2,0L6.016,16.782l.621-3.627a2.364,2.364,0,0,0-.681-2.093L3.321,8.494l3.642-.53a2.364,2.364,0,0,0,1.78-1.294l1.628-3.3L12,6.668a2.364,2.364,0,0,0,1.781,1.293l3.642.528Z" transform="translate(0 0)" fill="#417351"/>
      </g>
    </g>
    <g id="Grupo_132" data-name="Grupo 132" transform="translate(1393.668 2703.221)">
      <g id="Grupo_127-3" data-name="Grupo 127">
        <path id="Trazado_408-3" data-name="Trazado 408" d="M20.627,7.448a2.35,2.35,0,0,0-1.909-1.609l-4.3-.624-1.925-3.9A2.35,2.35,0,0,0,10.37,0h0A2.35,2.35,0,0,0,8.25,1.319l-1.923,3.9-4.3.626A2.365,2.365,0,0,0,.716,9.877L3.83,12.911,3.1,17.2a2.362,2.362,0,0,0,3.432,2.492l3.847-2.024,3.848,2.022a2.364,2.364,0,0,0,3.43-2.494l-.736-4.284,3.112-3.035A2.35,2.35,0,0,0,20.627,7.448Zm-5.838,3.611a2.363,2.363,0,0,0-.68,2.093l.623,3.627-3.258-1.712a2.364,2.364,0,0,0-2.2,0L6.016,16.782l.621-3.627a2.364,2.364,0,0,0-.681-2.093L3.321,8.494l3.642-.53a2.364,2.364,0,0,0,1.78-1.294l1.628-3.3L12,6.668a2.364,2.364,0,0,0,1.781,1.293l3.642.528Z" transform="translate(0 0)" fill="#417351"/>
      </g>
    </g>
    <g id="Grupo_130" data-name="Grupo 130" transform="translate(1408.797 2760.295)">
      <g id="Grupo_129" data-name="Grupo 129">
        <path id="Trazado_409" data-name="Trazado 409" d="M200.309,240.612a1.4,1.4,0,1,0,.412.993A1.414,1.414,0,0,0,200.309,240.612Z" transform="translate(-197.911 -240.2)" fill="#417351"/>
      </g>
    </g>
  </g>
</svg>
